<?xml version="1.0" encoding="iso-8859-1"?>
<!-- Uploaded to: SVG Repo, www.svgrepo.com, Generator: SVG Repo Mixer Tools -->
<!DOCTYPE svg PUBLIC "-//W3C//DTD SVG 1.1//EN" "http://www.w3.org/Graphics/SVG/1.1/DTD/svg11.dtd">
<svg fill="#000000" version="1.1" id="Capa_1" xmlns="http://www.w3.org/2000/svg" xmlns:xlink="http://www.w3.org/1999/xlink" 
	 width="800px" height="800px" viewBox="0 0 31.854 31.854"
	 xml:space="preserve">
<g>
	<path d="M15.94,11.735c0,0.588-0.476,1.064-1.065,1.064H5.298c-0.588,0-1.065-0.476-1.065-1.064c0-0.587,0.477-1.063,1.065-1.063
		h9.577C15.465,10.672,15.94,11.148,15.94,11.735z M21.52,11.087l5.342,4.791L15.535,28.505l-5.34-4.791L21.52,11.087z
		 M20.008,16.188l-0.033-0.029c-0.127-0.114-0.293-0.172-0.461-0.163c-0.168,0.009-0.328,0.085-0.439,0.211l-6.079,6.776
		c-0.253,0.281-0.229,0.713,0.052,0.965c0.126,0.115,0.291,0.174,0.461,0.164c0.168-0.01,0.327-0.086,0.44-0.213l6.108-6.81
		C20.293,16.828,20.27,16.423,20.008,16.188z M21.27,13.751l-0.301,0.336c-0.111,0.126-0.17,0.292-0.162,0.461
		c0.01,0.169,0.086,0.328,0.211,0.441l0.035,0.031c0.127,0.113,0.293,0.171,0.461,0.162c0.17-0.009,0.328-0.085,0.44-0.211
		l0.728-0.811l-0.51-0.457C21.91,13.467,21.506,13.489,21.27,13.751z M22.035,10.51l5.341,4.791l1.312-1.462l-5.34-4.791
		L22.035,10.51z M31.047,11.21l-1.877,2.093l-5.341-4.79l1.88-2.093c0.247-0.28,0.6-0.448,0.975-0.468
		c0.375-0.021,0.742,0.109,1.021,0.359l3.234,2.903C31.52,9.735,31.569,10.629,31.047,11.21z M29.996,10.264l-3.233-2.902
		l-0.937,1.042l3.233,2.903L29.996,10.264z M9.557,24.428l5.339,4.791l-6.31,2.586c-0.243,0.098-0.521,0.051-0.716-0.125
		c-0.196-0.177-0.273-0.447-0.201-0.699L9.557,24.428z M10.045,26.13l-0.722,2.507l1.411,1.268l2.412-0.986L10.045,26.13z
		 M8.215,24.285l-0.623,2.162H2.859c-1.332,0-2.413-1.08-2.413-2.412V6.493c0-1.332,1.08-2.413,2.413-2.413h2.94V3.906
		c0-0.492,0.399-0.89,0.89-0.89h0.74C7.414,2.909,7.406,2.781,7.406,2.661C7.406,1.194,8.599,0,10.067,0
		c1.469,0,2.661,1.194,2.661,2.661c0,0.12-0.01,0.248-0.023,0.354h0.749c0.492,0,0.89,0.399,0.89,0.89v0.174h2.87
		c1.332,0,2.412,1.081,2.412,2.413v4.63l-2.128,2.372V7.506c0-0.699-0.565-1.265-1.264-1.265h-1.891v1.201
		c0,0.491-0.399,0.89-0.89,0.89H6.69c-0.492,0-0.89-0.399-0.89-0.89V6.241H3.874c-0.699,0-1.265,0.567-1.265,1.265V23.02
		c0,0.701,0.567,1.266,1.265,1.266H8.215z M9.003,2.661c0,0.124,0.023,0.248,0.061,0.355h2.005c0.04-0.107,0.062-0.23,0.062-0.355
		c0-0.587-0.477-1.065-1.064-1.065C9.479,1.596,9.003,2.074,9.003,2.661z M14.949,16.341l0.991-1.105
		c-0.014-0.576-0.484-1.054-1.064-1.054H5.298c-0.588,0-1.065,0.493-1.065,1.082c0,0.587,0.477,1.082,1.065,1.082h9.577
		C14.9,16.344,14.925,16.342,14.949,16.341z M4.233,18.791c0,0.588,0.477,1.062,1.065,1.062H11.8l1.907-2.127H5.298
		C4.71,17.727,4.233,18.203,4.233,18.791z"/>
</g>
</svg>