<?xml version="1.0" standalone="no"?>
<!DOCTYPE svg PUBLIC "-//W3C//DTD SVG 20010904//EN"
 "http://www.w3.org/TR/2001/REC-SVG-20010904/DTD/svg10.dtd">
<svg version="1.0" xmlns="http://www.w3.org/2000/svg"
 width="512.000000pt" height="512.000000pt" viewBox="0 0 512.000000 512.000000"
 preserveAspectRatio="xMidYMid meet">

<g transform="translate(0.000000,512.000000) scale(0.100000,-0.100000)"
fill="#000000" stroke="none">
<path d="M2400 4344 c-211 -40 -380 -126 -519 -263 -321 -316 -371 -812 -120
-1182 45 -67 139 -167 198 -212 l35 -26 -30 -7 c-16 -3 -74 -28 -130 -54 -462
-221 -794 -668 -868 -1173 -22 -147 -23 -565 -1 -607 33 -64 -73 -60 1569 -60
1121 0 1501 3 1521 12 14 6 35 27 46 45 20 33 21 43 16 311 -4 235 -8 292 -26
377 -79 360 -276 680 -559 909 -96 78 -263 176 -368 217 l-84 33 37 30 c161
127 278 313 330 524 26 104 23 313 -6 422 -89 336 -339 588 -676 683 -69 19
-304 32 -365 21z m315 -264 c280 -87 465 -318 482 -605 7 -117 -14 -214 -68
-325 -34 -69 -58 -102 -128 -170 -145 -145 -309 -207 -515 -198 -329 16 -593
256 -636 579 -47 350 197 674 558 739 75 14 228 4 307 -20z m72 -1599 c392
-81 738 -344 912 -696 100 -201 130 -329 138 -587 l6 -188 -1323 0 -1323 0 6
173 c6 188 23 291 67 427 155 474 589 826 1095 890 107 13 307 4 422 -19z"/>
<path d="M3535 3971 c26 -40 62 -106 81 -146 33 -71 35 -74 100 -104 78 -37
179 -133 217 -206 54 -108 72 -243 46 -355 -30 -131 -144 -277 -260 -334 -72
-35 -99 -64 -106 -113 -11 -80 40 -130 175 -173 414 -131 692 -518 692 -961
l0 -99 -76 0 -77 0 7 -40 c3 -22 9 -74 13 -116 l6 -76 136 4 c151 4 189 16
216 68 21 41 21 378 0 510 -60 368 -310 713 -643 886 l-51 27 40 46 c134 152
206 380 180 575 -15 111 -35 175 -82 266 -116 225 -347 384 -589 406 l-72 7
47 -72z"/>
<path d="M1465 4013 c-70 -10 -155 -37 -232 -74 -391 -188 -550 -650 -353
-1028 22 -42 62 -103 89 -135 l49 -60 -64 -33 c-100 -51 -181 -109 -272 -197
-106 -101 -169 -185 -232 -307 -108 -210 -140 -361 -140 -667 l0 -202 34 -38
34 -37 154 -3 154 -3 15 125 14 125 -75 3 -75 3 -3 60 c-5 89 16 248 45 340
95 302 320 535 623 645 45 17 86 28 91 24 15 -9 57 23 79 59 44 72 14 133 -93
189 -75 39 -172 134 -209 204 -78 145 -78 327 -1 479 35 68 134 164 215 205
66 35 67 36 118 137 28 57 66 123 85 148 l35 45 -28 -1 c-15 -1 -40 -4 -57 -6z"/>
</g>
</svg>
