<?xml version="1.0" standalone="no"?>
<!DOCTYPE svg PUBLIC "-//W3C//DTD SVG 20010904//EN"
 "http://www.w3.org/TR/2001/REC-SVG-20010904/DTD/svg10.dtd">
<svg version="1.0" xmlns="http://www.w3.org/2000/svg"
 width="980.000000pt" height="850.000000pt" viewBox="0 0 980.000000 850.000000"
 preserveAspectRatio="xMidYMid meet">

<g transform="translate(0.000000,850.000000) scale(0.100000,-0.100000)"
fill="#000000" stroke="none">
<path d="M7964 8490 c-102 -21 -186 -85 -225 -173 -20 -43 -24 -69 -24 -147 0
-119 24 -179 96 -244 82 -73 107 -79 408 -85 l265 -6 -1294 -1100 c-712 -605
-1298 -1102 -1303 -1104 -5 -2 -487 474 -1071 1057 -863 862 -1071 1065 -1116
1088 -48 25 -66 29 -140 29 -74 0 -92 -4 -140 -29 -45 -23 -308 -281 -1443
-1414 -763 -763 -1403 -1409 -1422 -1437 -75 -110 -85 -274 -23 -394 40 -77
63 -95 148 -117 79 -20 242 -15 310 10 38 14 230 201 1322 1294 l1278 1277
1092 -1092 c601 -600 1108 -1099 1126 -1108 85 -42 204 -24 281 41 23 20 46
45 49 54 4 9 666 588 1472 1286 l1465 1270 3 -290 c1 -159 -2 -313 -7 -341
-19 -104 21 -191 110 -240 46 -25 68 -30 144 -33 154 -7 247 44 307 166 l33
67 0 735 c0 846 4 803 -89 895 -96 95 -49 90 -861 92 -390 0 -728 -3 -751 -7z"/>
<path d="M8157 5865 c-171 -47 -301 -173 -358 -347 l-24 -73 0 -2480 c0 -2777
-7 -2524 72 -2685 69 -142 208 -245 363 -270 105 -16 1069 -13 1151 4 106 23
183 68 274 160 90 90 136 171 155 271 8 44 10 726 8 2505 l-3 2445 -32 80
c-80 196 -216 340 -366 387 -54 17 -104 18 -625 17 -437 -1 -578 -4 -615 -14z
m718 -646 c77 -14 148 -50 177 -91 l23 -33 3 -2125 c1 -1169 0 -2140 -3 -2158
-9 -48 -58 -98 -123 -124 -49 -19 -76 -22 -192 -23 -182 0 -253 24 -307 104
l-23 34 0 2139 c0 2359 -5 2171 62 2221 18 13 47 29 63 36 78 30 218 39 320
20z"/>
<path d="M3008 5214 c-172 -41 -303 -162 -367 -338 l-26 -71 0 -2160 c0 -2411
-6 -2215 69 -2363 73 -145 211 -248 366 -272 37 -6 281 -10 575 -10 564 0 596
3 708 62 89 47 204 164 250 255 19 40 40 96 46 125 8 38 11 677 9 2178 l-3
2125 -34 78 c-66 154 -173 287 -281 349 -99 58 -105 58 -704 57 -433 0 -563
-4 -608 -15z m759 -660 c62 -19 121 -66 139 -110 12 -28 14 -328 14 -1831 0
-1732 -1 -1800 -19 -1833 -45 -85 -159 -125 -341 -118 -123 5 -188 24 -238 71
-55 51 -52 -70 -52 1889 l0 1813 25 37 c30 45 108 85 190 98 78 12 217 4 282
-16z"/>
<path d="M5607 3905 c-174 -48 -307 -182 -361 -364 -14 -49 -16 -204 -16
-1555 0 -1666 -4 -1561 68 -1706 70 -141 208 -245 362 -269 91 -15 1072 -15
1142 0 164 35 302 172 359 355 l24 79 0 1520 c0 1446 -1 1523 -18 1579 -48
154 -144 277 -265 337 l-67 34 -590 2 c-467 1 -600 -1 -638 -12z m778 -660
c28 -9 65 -28 83 -42 66 -50 62 36 62 -1241 l0 -1159 -23 -34 c-54 -80 -125
-104 -307 -104 -116 1 -143 4 -192 23 -65 26 -114 76 -123 124 -3 18 -4 548
-3 1178 l3 1145 23 33 c28 39 87 71 162 89 73 17 249 10 315 -12z"/>
<path d="M415 3260 c-201 -42 -354 -193 -400 -395 -14 -57 -15 -219 -12 -1238
2 -1064 4 -1177 19 -1227 58 -187 177 -319 338 -372 63 -22 80 -23 607 -26
580 -3 619 -1 713 45 118 57 235 215 265 360 22 104 22 2369 0 2462 -38 159
-139 292 -273 359 l-76 37 -570 2 c-314 0 -589 -3 -611 -7z m733 -665 c70 -21
114 -54 140 -105 l22 -44 0 -801 c0 -526 -4 -813 -11 -838 -14 -51 -67 -101
-131 -123 -75 -27 -300 -27 -374 -1 -63 22 -120 74 -133 125 -7 24 -11 313
-11 837 0 755 1 802 19 840 22 49 43 68 104 95 91 41 265 47 375 15z"/>
</g>
</svg>
