<?xml version="1.0" encoding="utf-8"?><!-- Uploaded to: SVG Repo, www.svgrepo.com, Generator: SVG Repo Mixer Tools -->
<svg fill="#000000" width="800px" height="800px" viewBox="0 0 1024 1024" xmlns="http://www.w3.org/2000/svg"><path d="M157.867 554.667h-76.8c-29.867 0-51.2 21.333-51.2 51.2v273.067c0 29.867 21.333 51.2 51.2 51.2h76.8c29.867 0 51.2-21.333 51.2-51.2V605.867c0-25.6-21.333-51.2-51.2-51.2zm8.533 324.266c0 4.267-4.267 8.533-8.533 8.533h-76.8c-4.267 0-8.533-4.267-8.533-8.533V605.866c0-4.267 4.267-8.533 8.533-8.533h76.8c4.267 0 8.533 4.267 8.533 8.533v273.067zm251.733-371.2h-76.8c-29.867 0-51.2 21.333-51.2 51.2v328.533c0 29.867 21.333 51.2 51.2 51.2h76.8c29.867 0 51.2-21.333 51.2-51.2v-332.8c0-25.6-21.333-46.933-51.2-46.933zm8.534 375.467c0 4.267-4.267 8.533-8.533 8.533h-76.8c-4.267 0-8.533-4.267-8.533-8.533V554.667c0-4.267 4.267-8.533 8.533-8.533h76.8c4.267 0 8.533 4.267 8.533 8.533V883.2zM678.4 456.533h-76.8c-29.867 0-51.2 21.333-51.2 51.2v384c0 29.867 21.333 51.2 51.2 51.2h76.8c29.867 0 51.2-21.333 51.2-51.2v-384c0-29.867-25.6-51.2-51.2-51.2zm8.533 435.2c0 4.267-4.267 8.533-8.533 8.533h-76.8c-4.267 0-8.533-4.267-8.533-8.533v-384c0-4.267 4.267-8.533 8.533-8.533h76.8c4.267 0 8.533 4.267 8.533 8.533v384zm251.734-486.4h-76.8c-29.867 0-51.2 21.333-51.2 51.2v430.933c0 29.867 21.333 51.2 51.2 51.2h76.8c29.867 0 51.2-21.333 51.2-51.2V456.533c0-25.6-25.6-51.2-51.2-51.2zm8.533 482.134c0 4.267-4.267 8.533-8.533 8.533h-76.8c-4.267 0-8.533-4.267-8.533-8.533V456.534c0-4.267 4.267-8.533 8.533-8.533h76.8c4.267 0 8.533 4.267 8.533 8.533v430.933zm25.6-780.8s-4.267 0 0 0c-4.267 0-4.267 0 0 0H870.4c-12.8 0-21.333 8.533-21.333 21.333s8.533 21.333 21.333 21.333h42.667c-268.8 149.333-563.2 234.667-870.4 251.733-12.8 0-21.333 12.8-21.333 21.333 0 12.8 8.533 21.333 21.333 21.333 324.267-17.067 627.2-106.667 908.8-264.533v42.667c0 12.8 8.533 21.333 21.333 21.333 12.8 0 21.333-8.533 21.333-21.333v-98.133c0-8.533-8.533-17.067-21.333-17.067z"/></svg>