<!DOCTYPE svg PUBLIC "-//W3C//DTD SVG 1.1//EN" "http://www.w3.org/Graphics/SVG/1.1/DTD/svg11.dtd">
<!-- Uploaded to: SVG Repo, www.svgrepo.com, Transformed by: SVG Repo Mixer Tools -->
<svg fill="#000000" version="1.1" id="Capa_1" xmlns="http://www.w3.org/2000/svg" xmlns:xlink="http://www.w3.org/1999/xlink" width="800px" height="800px" viewBox="0 0 50.81 50.81" xml:space="preserve" stroke="#000000" stroke-width="0.00050811" transform="matrix(1, 0, 0, 1, 0, 0)rotate(0)">
<g id="SVGRepo_bgCarrier" stroke-width="0" transform="translate(0,0), scale(1)"/>
<g id="SVGRepo_tracerCarrier" stroke-linecap="round" stroke-linejoin="round" stroke="#CCCCCC" stroke-width="0.40648800000000007"/>
<g id="SVGRepo_iconCarrier"> <g> <g> <path d="M12.295,11.631c-0.014-0.018-0.033-0.025-0.048-0.042c-0.046-0.053-0.1-0.094-0.156-0.136 c-0.049-0.037-0.096-0.075-0.15-0.102c-0.056-0.027-0.115-0.042-0.176-0.059c-0.066-0.019-0.13-0.036-0.199-0.041 c-0.022-0.001-0.041-0.013-0.063-0.013H5.785c-0.553,0-1,0.448-1,1s0.447,1,1,1h5.225l5.641,7.34l2.455,18.405 c0.066,0.498,0.49,0.868,0.991,0.868h22.11c0.501,0,0.925-0.37,0.991-0.868l2.489-18.669c0.037-0.286-0.049-0.574-0.239-0.791 c-0.188-0.217-0.464-0.341-0.752-0.341h-1.854c0.211-0.493,0.389-0.995,0.528-1.507h0.487c0.58,0,1.127-0.227,1.537-0.64 c0.41-0.411,0.635-0.957,0.631-1.531v-2.1c0.004-0.58-0.221-1.126-0.631-1.537c-0.41-0.412-0.957-0.639-1.537-0.639h-0.49 c-0.271-0.997-0.663-1.946-1.174-2.835l0.346-0.344c0.848-0.847,0.848-2.224,0-3.071l-1.486-1.488c-0.822-0.821-2.25-0.819-3.07,0 l-0.344,0.344c-0.892-0.509-1.841-0.901-2.838-1.172V2.172C34.801,0.974,33.826,0,32.629,0h-2.104 c-1.197,0-2.172,0.974-2.172,2.172v0.483c-0.992,0.27-1.94,0.664-2.836,1.177l-0.343-0.343c-0.82-0.819-2.244-0.823-3.073,0 l-1.484,1.487c-0.847,0.846-0.847,2.223,0,3.069l0.344,0.345c-0.514,0.896-0.907,1.846-1.178,2.836H19.3 c-1.197,0-2.172,0.974-2.172,2.172v2.104c0,1.197,0.975,2.17,2.172,2.17h0.489c0.142,0.511,0.319,1.014,0.528,1.507h-2.218 L12.295,11.631z M24.378,14.452c0-3.97,3.229-7.2,7.199-7.2s7.2,3.23,7.2,7.2c0,1.754-0.637,3.416-1.788,4.73H26.163 C25.014,17.87,24.378,16.208,24.378,14.452z"/> <path d="M28.268,46.32c0-2.477-2.015-4.492-4.491-4.492c-2.476,0-4.491,2.016-4.491,4.492s2.015,4.49,4.491,4.49 C26.253,50.811,28.268,48.797,28.268,46.32z"/> <path d="M42.173,46.32c0-2.477-2.015-4.492-4.491-4.492c-2.475,0-4.488,2.016-4.488,4.492s2.015,4.49,4.488,4.49 C40.158,50.811,42.173,48.797,42.173,46.32z"/> </g> </g> </g>
</svg>