<?xml version="1.0" standalone="no"?>
<!DOCTYPE svg PUBLIC "-//W3C//DTD SVG 20010904//EN"
 "http://www.w3.org/TR/2001/REC-SVG-20010904/DTD/svg10.dtd">
<svg version="1.0" xmlns="http://www.w3.org/2000/svg"
 width="512.000000pt" height="512.000000pt" viewBox="0 0 512.000000 512.000000"
 preserveAspectRatio="xMidYMid meet">

<g transform="translate(0.000000,512.000000) scale(0.100000,-0.100000)"
fill="#000000" stroke="none">
<path d="M2625 5111 c-39 -17 -57 -51 -85 -161 -16 -61 -31 -114 -33 -117 -3
-2 -40 19 -82 47 -104 70 -138 84 -179 70 -20 -6 -94 -72 -204 -183 -207 -209
-203 -196 -116 -345 31 -54 58 -100 60 -104 2 -3 -48 -18 -111 -33 -98 -23
-118 -31 -140 -56 l-25 -31 0 -255 0 -255 28 -28 c22 -22 51 -33 145 -55 64
-15 117 -29 117 -31 0 -2 -26 -45 -57 -96 -48 -78 -57 -101 -58 -140 l0 -48
170 -170 c194 -195 214 -206 284 -170 24 12 72 39 107 61 35 21 68 39 72 39 4
0 18 -46 31 -102 44 -195 34 -190 356 -186 l245 3 25 25 c18 19 32 54 51 135
15 61 30 114 34 118 4 5 54 -19 111 -52 57 -34 109 -61 116 -61 40 0 92 42
229 186 83 88 156 169 162 181 22 41 12 77 -47 178 -33 55 -58 102 -56 103 2
2 54 17 117 32 167 43 158 23 158 335 l0 253 -25 30 c-22 26 -42 34 -143 58
-64 15 -118 29 -120 30 -2 1 24 49 57 105 78 132 79 150 9 227 -119 130 -275
284 -302 299 -40 21 -74 12 -170 -47 -46 -27 -90 -52 -98 -55 -12 -5 -20 16
-38 102 -18 82 -30 114 -51 138 l-27 30 -249 2 c-136 1 -257 -2 -268 -6z m367
-642 c185 -38 347 -191 402 -378 18 -62 21 -203 5 -271 -20 -88 -69 -172 -143
-246 -112 -112 -222 -159 -376 -159 -156 0 -288 59 -395 176 -95 105 -135 211
-135 359 0 148 51 270 155 374 127 127 310 181 487 145z"/>
<path d="M257 4670 c-35 -28 -47 -76 -47 -190 0 -114 12 -162 47 -190 24 -19
39 -20 239 -20 l212 0 16 -47 c14 -44 606 -1939 643 -2061 l17 -52 -186 -188
c-202 -204 -228 -243 -247 -363 -30 -186 69 -368 246 -452 l68 -32 1572 -3
1572 -2 33 29 33 29 0 152 0 152 -33 29 -32 29 -1523 0 -1522 0 215 215 215
215 986 0 c621 0 1006 4 1039 10 110 21 208 84 269 174 16 23 202 411 415 863
417 885 414 877 396 1001 -16 116 -88 212 -196 264 -51 24 -78 29 -170 35
-144 8 -199 -1 -236 -37 l-28 -28 0 -250 c0 -313 -8 -347 -102 -448 l-61 -65
-3 -84 c-4 -137 -22 -166 -242 -388 -221 -222 -244 -237 -387 -246 l-93 -6
-56 -53 c-102 -96 -105 -97 -446 -97 -341 0 -344 1 -446 97 l-56 53 -93 6
c-143 9 -166 24 -387 246 -221 222 -240 253 -243 390 l-1 82 -57 60 c-98 103
-100 112 -107 432 -5 254 -7 279 -24 298 -28 31 -78 41 -201 41 l-110 0 -53
160 c-42 126 -61 168 -86 195 -60 63 -71 65 -419 65 -301 0 -315 -1 -340 -20z"/>
<path d="M1364 829 c-365 -115 -396 -626 -49 -785 82 -38 169 -50 247 -36 231
43 388 259 350 483 -21 119 -83 220 -177 284 -105 73 -248 94 -371 54z"/>
<path d="M3960 843 c-60 -12 -152 -64 -206 -117 -208 -209 -146 -560 121 -682
82 -38 169 -50 247 -36 231 43 388 259 350 483 -20 119 -78 214 -171 280 -91
65 -225 93 -341 72z"/>
</g>
</svg>
